<?xml version="1.0" encoding="utf-8"?>
<svg xmlns="http://www.w3.org/2000/svg"
     xmlns:xlink="http://www.w3.org/1999/xlink"
     width="25" height="25"
     viewBox="-50 -50 100 100">

    <defs>
        <radialGradient id="gradiente" cx="0.65" cy="0.65">
            <stop stop-color="#c70" offset="0%"/>
            <stop stop-color="#c40" offset="100%"/>
        </radialGradient>
        <g id="a">
            <circle r="4" fill="#f80" stroke="#f70" stroke-width="0.2"/>
            <circle r="3" fill="url(#gradiente)"/>
        </g>
    </defs>

    <g transform="translate(1 -7)">
        <path d="m -36 -33 h 71 l 4 4 v 21 v 50 l -4 4 h -71 l -4 -4 v -71 z" fill="#fa0"/>
        <path d="M -19 -22 h 37 l 7 7 v 19 l -7 7 h -10 l -1 1 v 8 l -1 1 h -14 l -1 -1 v -12 l 8 -8 h 9 l 1 -1 v -9 l -1 -1 h -17 l -1 1 v 9 l -1 1 h -14 l -1 -1 v -14 z m 11 47 h 14 l 1 1 v 8 l -1 1 h -14 l -1 -1 v -8 z" fill="#f9f9f9" stroke="#000" stroke-width="2.5"/>
        <path d="M -19 -22 h 37 l 7 7 v 19 l -7 7 h -10 l -1 1 v 8 l -1 1 h -14 l -1 -1 v -12 l 8 -8 h 9 l 1 -1 v -9 l -1 -1 h -17 l -1 1 v 9 l -1 1 h -14 l -1 -1 v -14 z m 11 47 h 14 l 1 1 v 8 l -1 1 h -14 l -1 -1 v -8 z" fill="none" stroke="#ddd" stroke-width="2"/>
        <path d="M -19 -22 h 37 l 7 7 v 19 l -7 7 h -10 l -1 1 v 8 l -1 1 h -14 l -1 -1 v -12 l 8 -8 h 9 l 1 -1 v -9 l -1 -1 h -17 l -1 1 v 9 l -1 1 h -14 l -1 -1 v -14 z m 11 47 h 14 l 1 1 v 8 l -1 1 h -14 l -1 -1 v -8 z" fill="none" stroke="#ddd" stroke-width="2"/>
        <g>
            <path d="M -36 -33 V -29 H -40 Z"       fill="#fd0"/>
            <path d="M -36 -33 H 35 V -29 H -36 Z"  fill="#fc0"/>
            <path d="M 35 -33 V -29 H 39 Z"         fill="#fa0"/>
            <path d="M 35 -29 H 39 V 42 H 35 Z"     fill="#f70"/>
            <path d="M 35 46 V 42 H 39 Z"           fill="#f40"/>
            <path d="M 35 42 H -36 V 46 H 35 Z"     fill="#f60"/>
            <path d="M -40 42 H -36 V 46 Z"         fill="#f80"/>
            <path d="M -36 42 H -40 V -29 H -36 Z"  fill="#fb0"/>
        </g>
    </g>

    <use xlink:href="#a" transform="translate(30 -30)"/>
    <use xlink:href="#a" transform="translate(30 30)"/>
    <use xlink:href="#a" transform="translate(-30 -30)"/>
    <use xlink:href="#a" transform="translate(-30 30)"/>
</svg>
