<?xml version="1.0" encoding="utf-8"?>
<svg xmlns="http://www.w3.org/2000/svg"
     xmlns:xlink="http://www.w3.org/1999/xlink"
     width="25" height="25"
     viewBox="-50 -57 100 100">
    <defs>
        <radialGradient id="gradiente" cx="0.35" cy="0.35">
            <stop stop-color="gray" offset="0%"/>
            <stop stop-color="#222" offset="100%"/>
        </radialGradient>
        <radialGradient id="gradiente1">
            <stop stop-color="#999" offset="0%"/>
            <stop stop-color="#444" offset="100%"/>
        </radialGradient>
        <linearGradient id="gradiente2">
            <stop stop-color="#333" offset="0%"/>
            <stop stop-color="gray" offset="50%"/>
            <stop stop-color="#333" offset="100%"/>
        </linearGradient>
        <mask id="a">
            <path id="a" d="M 3.7 -13.3 c -2.5 -15 7.5 -25 15 -17.5 c 6 5.5 10 2.5 15 -2.5 c 2.5 -2.5 5 -2.5 2.5 0 c -7.5 7.5 -11.5 10 -20 2.5 c -4.5 -3.5 -12.5 2.5 -10.5 17.5 z" fill="#999" stroke="black"/>
        </mask>
    </defs>

    <circle r="25" cy="10" fill="url(#gradiente)" stroke="black"/>
    <g transform="rotate(-20 0 10)">
        <ellipse rx="10" ry="5" cy="-10" fill="url(#gradiente2)" stroke="black"/>
        <rect x="-10.5" y="-15" width="21" height="4.9" fill="black"/>
        <rect x="-9.5" y="-15" width="19" height="5" fill="url(#gradiente2)"/>
        <ellipse rx="10" ry="5" cy="-15" fill="url(#gradiente1)" stroke="black"/>
        <path d="M -1 -15 c -2.5 -15 7.5 -25 15 -17.5 c 6 5.5 10 2.5 15 -2.5 c 2.5 -2.5 5 -2.5 2.5 0 c -7.5 7.5 -11.5 10 -20 2.5 c -4.5 -3.5 -12.5 2.5 -10.5 17.5 z" fill="gold" stroke="black"/>
    </g>
    <g transform="translate(-5 0) rotate(-20 0 10)">
        <path d="
        M 0 -25 l 20 30
        M 0 -30 l 20 30
        M 0 -35 l 20 30
        M 0 -40 l 20 30
        M 0 -45 l 20 30
        M 0 -50 l 20 30
        M 0 -55 l 20 30
        M 0 -60 l 40 60
        M 0 -65 l 40 60
        M 0 -70 l 40 60
        M 0 -75 l 40 60
        M 0 -80 l 40 60
        M 0 -85 l 40 60
        M 0 -89 l 40 60
        " stroke="maroon" mask="url(#a)"/>
    </g>
    <g transform="rotate(-20 0 10)">
        <path d="M 30 -38 l 0 -7 l 2 6 l 3 -5 l -1 5 l 4 -3 l -3 4 l 5 1 l -5 1 l 5 1 l -5 0 l 4 3 l -5 -2 l 5 6 l -7 -5 l 1 4 l -2 -4 l -2 4 l 1 -5 l -7 -1 l 6 -2 l -5 -4 z" fill="red"/>
        <path d="M 30.4 -34.8 l -3.9 -0.6 l 3.6 -1.1 l -1.9 -1.7 l 2.5 1 l 0 -2.8 l 1 2.6 l 1.7 -2.5 l -0.2 2.1 l 2.1 -1.6 l -1.7 1.9 l 2.8 0.6 l -2.9 0.4 l 2.5 1.1 l -2.4 0 l 2.2 1.5 l -2.9 -0.9 l 2.2 3 l -3.4 -1.7 l -0.2 0.9 l -0.6 -1.3 l -0.6 0.9 z" fill="gold"/>
    </g>
</svg>
