<?xml version="1.0" encoding="utf-8"?>
<svg xmlns="http://www.w3.org/2000/svg"
     xmlns:xlink="http://www.w3.org/1999/xlink"
     width="25" height="25"
     viewBox="-50 -50 1000 500">
    <defs>
        <radialGradient id="gradiente" cx="0.45" cy="0.45">
            <stop stop-color="gray" offset="0%"/>
            <stop stop-color="gray" offset="30%"/>
            <stop stop-color="black" offset="100%"/>
        </radialGradient>
        <radialGradient id="gradiente1">
            <stop stop-color="gray" offset="0%"/>
            <stop stop-color="black" offset="100%"/>
        </radialGradient>
        <linearGradient id="gradiente2">
            <stop stop-color="black" offset="0%"/>
            <stop stop-color="gray" offset="50%"/>
            <stop stop-color="black" offset="100%"/>
        </linearGradient>

        <g id="a" fill="black" transform="translate(0 -4)">
            <circle r="5" cy="-37" fill="url(#gradiente1)"/>
            <circle r="5" cy="-22" fill="url(#gradiente1)"/>
            <rect x="-5" y="-37" width="10" height="15" fill="url(#gradiente2)"/>
        </g>
        <radialGradient id="gradiente4" cx="0.65" cy="0.65">
            <stop stop-color="#c70" offset="0%"/>
            <stop stop-color="#c40" offset="100%"/>
        </radialGradient>
        <g id="a">
            <circle r="4" fill="#f80" stroke="#f70" stroke-width="0.2"/>
            <circle r="3" fill="url(#gradiente)"/>
        </g>
        <g id="inte">
            <g transform="translate(1 -7)">
                <path d="m -36 -33 h 71 l 4 4 v 21 v 50 l -4 4 h -71 l -4 -4 v -71 z" fill="#fa0"/>
                <path d="M -19 -22 h 37 l 7 7 v 19 l -7 7 h -10 l -1 1 v 8 l -1 1 h -14 l -1 -1 v -12 l 8 -8 h 9 l 1 -1 v -9 l -1 -1 h -17 l -1 1 v 9 l -1 1 h -14 l -1 -1 v -14 z m 11 47 h 14 l 1 1 v 8 l -1 1 h -14 l -1 -1 v -8 z" fill="#f9f9f9" stroke="#000" stroke-width="2.5"/>
                <path d="M -19 -22 h 37 l 7 7 v 19 l -7 7 h -10 l -1 1 v 8 l -1 1 h -14 l -1 -1 v -12 l 8 -8 h 9 l 1 -1 v -9 l -1 -1 h -17 l -1 1 v 9 l -1 1 h -14 l -1 -1 v -14 z m 11 47 h 14 l 1 1 v 8 l -1 1 h -14 l -1 -1 v -8 z" fill="none" stroke="#ddd" stroke-width="2"/>
                <path d="M -19 -22 h 37 l 7 7 v 19 l -7 7 h -10 l -1 1 v 8 l -1 1 h -14 l -1 -1 v -12 l 8 -8 h 9 l 1 -1 v -9 l -1 -1 h -17 l -1 1 v 9 l -1 1 h -14 l -1 -1 v -14 z m 11 47 h 14 l 1 1 v 8 l -1 1 h -14 l -1 -1 v -8 z" fill="none" stroke="#ddd" stroke-width="2"/>
                <g>
                    <path d="M -36 -33 V -29 H -40 Z"       fill="#fd0"/>
                    <path d="M -36 -33 H 35 V -29 H -36 Z"  fill="#fc0"/>
                    <path d="M 35 -33 V -29 H 39 Z"         fill="#fa0"/>
                    <path d="M 35 -29 H 39 V 42 H 35 Z"     fill="#f70"/>
                    <path d="M 35 46 V 42 H 39 Z"           fill="#f40"/>
                    <path d="M 35 42 H -36 V 46 H 35 Z"     fill="#f60"/>
                    <path d="M -40 42 H -36 V 46 Z"         fill="#f80"/>
                    <path d="M -36 42 H -40 V -29 H -36 Z"  fill="#fb0"/>
                </g>
            </g>
            <use xlink:href="#a" transform="translate(30 -30)"/>
            <use xlink:href="#a" transform="translate(30 30)"/>
            <use xlink:href="#a" transform="translate(-30 -30)"/>
            <use xlink:href="#a" transform="translate(-30 30)"/>
        </g>
        <g id="grup">
            <circle r="30" fill="url(#gradiente)">
                <animateTransform attributeName="transform" type="rotate" from="0" to="360" dur="4s" repeatCount="indefinite"/>
            </circle>
            <use xlink:href="#a" transform="rotate(0)">
                <animateTransform attributeName="transform" type="rotate" from="45" to="405" dur="4s" repeatCount="indefinite"/>
            </use>
            <use xlink:href="#a" transform="rotate(45)">
                <animateTransform attributeName="transform" type="rotate" from="90" to="450" dur="4s" repeatCount="indefinite"/>
            </use>
            <use xlink:href="#a" transform="rotate(90)">
                <animateTransform attributeName="transform" type="rotate" from="135" to="495" dur="4s" repeatCount="indefinite"/>
            </use>
            <use xlink:href="#a" transform="rotate(135)">
                <animateTransform attributeName="transform" type="rotate" from="180" to="540" dur="4s" repeatCount="indefinite"/>
            </use>
            <use xlink:href="#a" transform="rotate(180)">
                <animateTransform attributeName="transform" type="rotate" from="225" to="585" dur="4s" repeatCount="indefinite"/>
            </use>
            <use xlink:href="#a" transform="rotate(225)">
                <animateTransform attributeName="transform" type="rotate" from="270" to="630" dur="4s" repeatCount="indefinite"/>
            </use>
            <use xlink:href="#a" transform="rotate(270)">
                <animateTransform attributeName="transform" type="rotate" from="315" to="675" dur="4s" repeatCount="indefinite"/>
            </use>
            <use xlink:href="#a" transform="rotate(315)">
                <animateTransform attributeName="transform" type="rotate" from="360" to="720" dur="4s" repeatCount="indefinite"/>
            </use>
            <circle r="6" fill="url(#gradiente1)">
                <animateTransform attributeName="transform" type="rotate" from="405" to="765" dur="4s" repeatCount="indefinite"/>
            </circle>
        </g>
    </defs>

    <!-- Instancias de los grupos con animación de rotación -->
    <use xlink:href="#grup" transform="translate(0 0) scale(0.5)"/>
    <use xlink:href="#grup" transform="translate(300 420) scale(0.8)"/>
    <use xlink:href="#grup" transform="translate(150 100)"/>
    <use xlink:href="#grup" transform="translate(800 100)scale(0.4)"/>
    <use xlink:href="#grup" transform="translate(50 350) scale(2.1)"/>
    <use xlink:href="#grup" transform="translate(600 400) scale(0.5)"/>
    <use xlink:href="#grup" transform="translate(750 250)"/>
    <use xlink:href="#grup" transform="translate(900 400)"/>
    <use xlink:href="#grup" transform="translate(750 250)"/>
    <use xlink:href="#grup" transform="translate(900 400)"/>

</svg>
